<svg>
           <symbol fill="none" xmlns="http://www.w3.org/2000/svg" viewBox="0 0 24 24" id="icones-1">
                <path d="M3 8C2.44772 8 2 8.44772 2 9V17C2 19.7614 4.23858 22 7 22H17C19.7614 22 22 19.7614 22 17V9C22 8.44772 21.5523 8 21 8H3Z" fill="#4296FF"></path>
                <path d="M7 2C7.55228 2 8 2.44772 8 3V4H16V3C16 2.44772 16.4477 2 17 2C17.5523 2 18 2.44772 18 3V4.10002C20.2822 4.56329 22 6.58104 22 9C22 9.55228 21.5523 10 21 10H3C2.44772 10 2 9.55228 2 9C2 6.58104 3.71776 4.56329 6 4.10002V3C6 2.44772 6.44772 2 7 2Z" fill="#152C70"></path>
                <path fill-rule="evenodd" clip-rule="evenodd" d="M7 13C7 12.4477 7.44772 12 8 12H16C16.5523 12 17 12.4477 17 13C17 13.5523 16.5523 14 16 14H8C7.44772 14 7 13.5523 7 13Z" fill="#152C70"></path>
                <path fill-rule="evenodd" clip-rule="evenodd" d="M7 17C7 16.4477 7.44772 16 8 16H12C12.5523 16 13 16.4477 13 17C13 17.5523 12.5523 18 12 18H8C7.44772 18 7 17.5523 7 17Z" fill="#152C70"></path>
            </symbol>

            <symbol version="1.1" xml:space="preserve" xmlns="http://www.w3.org/2000/svg" xmlnsSerif="http://www.serif.com/" xmlns:xlink="http://www.w3.org/1999/xlink" viewBox="0 0 256 256" id="icones-2" fill="#1d61e1">
                <path d="M191.33,62.954c1.527,0.181 1.928,0.415 2.664,0.866c3.049,1.868 3.769,6.697 1.107,9.358c-1.111,1.112 -2.657,1.695 -4.242,1.758l-96.868,0c-1.537,-0.061 -1.955,-0.262 -2.724,-0.654c-3.327,-1.695 -4.297,-6.811 -1.519,-9.589c1.111,-1.111 2.657,-1.695 4.243,-1.757l96.868,0c0.157,0.006 0.314,0.012 0.471,0.018Z"></path>
                <path d="M136.145,94.956c5.011,0.395 7.919,8.167 2.686,11.188c-0.635,0.367 -1.337,0.616 -2.062,0.73c-0.31,0.049 -0.624,0.066 -0.938,0.074l-41.84,0c-5.159,-0.135 -8.337,-8.115 -3,-11.196c0.635,-0.367 1.337,-0.615 2.061,-0.73c0.31,-0.049 0.624,-0.066 0.939,-0.074l41.84,0c0.105,0.003 0.209,0.006 0.314,0.008Z"></path>
                <path d="M191.128,94.954c4.424,0.299 7.487,6.236 4.249,9.942c-1.123,1.285 -2.793,2.013 -4.518,2.052l-30.277,0c-4.361,-0.098 -7.649,-5.68 -4.854,-9.527c1.11,-1.526 2.945,-2.43 4.854,-2.473l30.277,0c0.09,0.002 0.179,0.004 0.269,0.006Z"></path>
                <path d="M191.128,155.586c4.461,0.3 7.443,6.286 4.249,9.941c-1.123,1.286 -2.793,2.014 -4.518,2.053l-30.277,0c-4.548,-0.102 -7.823,-6.165 -4.518,-9.948c1.123,-1.285 2.793,-2.014 4.518,-2.052l30.277,0c0.09,0.002 0.179,0.004 0.269,0.006Z"></path>
                <path d="M136.281,155.588c4.251,0.335 7.268,5.763 4.54,9.518c-1.108,1.525 -2.951,2.424 -4.854,2.474l-41.976,0c-5.115,-0.134 -8.274,-8.152 -3,-11.196c0.635,-0.367 1.337,-0.616 2.061,-0.73c0.31,-0.05 0.624,-0.066 0.939,-0.074l41.976,0c0.105,0.002 0.209,0.005 0.314,0.008Z"></path>
                <path d="M191.26,124.725c4.371,0.44 7.291,6.181 4.181,9.86c-1.12,1.325 -2.225,2.048 -4.582,2.126l-68.019,0c-4.558,-0.152 -7.78,-6.091 -4.582,-9.873c1.12,-1.325 2.224,-2.048 4.582,-2.127l68.019,0c0.133,0.005 0.267,0.009 0.401,0.014Z"></path>
                <path d="M100.706,199.292c-24.359,0.84 -48.585,2.928 -72.448,6.347c-1.556,0.222 -3.733,0.54 -3.733,0.54c-11.662,1.38 -23.352,-8.08 -23.607,-20.551c-0.289,-42.436 -0.002,-84.769 0.003,-127.122l0.002,-14.221c0,0 0.128,-4.078 1.299,-7.251c3.154,-8.542 12.267,-14.419 21.588,-13.636c66.139,6.435 133.708,6.73 200.217,0.695c2.744,-0.249 5.486,-0.518 8.227,-0.776c0,0 0.702,-0.094 2.21,-0.076c10.783,0.265 20.396,9.542 20.618,20.719c0.309,47.21 0.003,94.335 -0.011,141.532c0,0 -0.134,4.181 -1.363,7.421c-3.307,8.722 -12.862,14.558 -22.376,13.365c-26.207,-3.649 -52.741,-5.999 -79.307,-6.943l0.001,0.044l0,5.878c15.996,2.139 31.752,6.107 46.937,11.438c0,0 4.243,1.819 4.555,5.332c0.319,3.603 -3.267,7.006 -6.871,6.463c-1.716,-0.259 -1.996,-0.591 -2.79,-0.868c-42.618,-14.74 -89.902,-16.767 -133.209,0.508c0,0 -3.387,0.814 -5.473,-0.53c-3.702,-2.386 -3.549,-8.8 1.549,-10.825c14.217,-5.646 28.976,-9.52 43.979,-11.576l0,-5.82l0.003,-0.087Zm133.305,-164.054c-6.231,0.092 -13.359,1.223 -20.194,1.774c-60.569,4.884 -121.882,4.784 -182.565,-0.838c-4.004,-0.371 -8.257,-1.521 -11.787,-0.521c-3.694,1.046 -6.463,4.625 -6.541,8.533c-0.312,47.102 -0.328,94.181 -0.007,141.278c0.103,5.025 4.817,9.434 10.116,8.807c17.904,-2.367 35.924,-4.614 54.005,-5.87c50.801,-3.53 101.921,-1.466 152.431,5.499c6.12,0.844 13.448,-0.767 13.602,-8.306c0.316,-47.083 0.321,-94.277 0.012,-141.476c-0.092,-4.603 -3.973,-8.697 -8.718,-8.876c-0.118,-0.003 -0.236,-0.004 -0.354,-0.004Z"></path>
                <path d="M80.029,64.248c0,-0.778 -0.309,-1.523 -0.858,-2.073c-0.55,-0.55 -1.296,-0.859 -2.073,-0.859c-2.612,0 -6.414,0 -9.025,0c-0.778,0 -1.523,0.309 -2.073,0.859c-0.55,0.55 -0.859,1.295 -0.859,2.073c0,2.698 0,6.678 0,9.376c0,0.777 0.309,1.523 0.859,2.073c0.55,0.549 1.295,0.858 2.073,0.858c2.611,0 6.413,0 9.025,0c0.777,0 1.523,-0.309 2.073,-0.858c0.549,-0.55 0.858,-1.296 0.858,-2.073c0,-2.698 0,-6.678 0,-9.376Z"></path>
                <path d="M80.029,96.26c0,-0.777 -0.309,-1.523 -0.858,-2.073c-0.55,-0.55 -1.296,-0.858 -2.073,-0.858c-2.612,0 -6.414,0 -9.025,0c-0.778,0 -1.523,0.308 -2.073,0.858c-0.55,0.55 -0.859,1.296 -0.859,2.073c0,2.698 0,6.678 0,9.376c0,0.778 0.309,1.523 0.859,2.073c0.55,0.55 1.295,0.859 2.073,0.859c2.611,0 6.413,0 9.025,0c0.777,0 1.523,-0.309 2.073,-0.859c0.549,-0.55 0.858,-1.295 0.858,-2.073c0,-2.698 0,-6.678 0,-9.376Z"></path>
                <path d="M80.029,156.892c0,-0.778 -0.309,-1.523 -0.858,-2.073c-0.55,-0.55 -1.296,-0.859 -2.073,-0.859c-2.612,0 -6.414,0 -9.025,0c-0.778,0 -1.523,0.309 -2.073,0.859c-0.55,0.55 -0.859,1.295 -0.859,2.073c0,2.698 0,6.678 0,9.376c0,0.777 0.309,1.523 0.859,2.073c0.55,0.549 1.295,0.858 2.073,0.858c2.611,0 6.413,0 9.025,0c0.777,0 1.523,-0.309 2.073,-0.858c0.549,-0.55 0.858,-1.296 0.858,-2.073c0,-2.698 0,-6.678 0,-9.376Z"></path>
                <path d="M108.879,126.023c0,-0.777 -0.309,-1.523 -0.859,-2.072c-0.55,-0.55 -1.295,-0.859 -2.073,-0.859c-2.612,0 -6.413,0 -9.025,0c-0.777,0 -1.523,0.309 -2.073,0.859c-0.55,0.549 -0.858,1.295 -0.858,2.072c0,2.698 0,6.679 0,9.376c0,0.778 0.308,1.524 0.858,2.073c0.55,0.55 1.296,0.859 2.073,0.859c2.612,0 6.413,0 9.025,0c0.778,0 1.523,-0.309 2.073,-0.859c0.55,-0.549 0.859,-1.295 0.859,-2.073c0,-2.697 0,-6.678 0,-9.376Z"></path>
            </symbol>

              <symbol version="1.1" id="icones-3" xmlns="http://www.w3.org/2000/svg" xmlns:xlink="http://www.w3.org/1999/xlink" xml:space="preserve" viewBox="0 0 512 512" fill="#507c5c">
                <path d="M460.878,492.991H51.122c-20.603,0-37.364-16.76-37.364-37.362V135.415
                c0-8.441,6.843-15.285,15.285-15.285s15.285,6.845,15.285,15.285v320.213c0,3.745,3.048,6.791,6.793,6.791h409.756
                c3.745,0,6.793-3.046,6.793-6.791V257.711c0-8.441,6.843-15.285,15.285-15.285s15.285,6.845,15.285,15.285v197.918
                C498.242,476.232,481.481,492.991,460.878,492.991z"></path>
                <path d="M496.715,164.731V82.607c0-12.193-9.885-22.077-22.078-22.077H37.364
                c-12.193-0.002-22.078,9.884-22.078,22.077v82.126h481.429V164.731z"></path>
                <g>
                <path d="M496.715,180.018H15.285C6.843,180.018,0,173.173,0,164.733V82.607
                    c0-20.603,16.76-37.362,37.364-37.362h437.272C495.24,45.245,512,62.005,512,82.607v82.126
                    C512,173.173,505.157,180.018,496.715,180.018z M30.571,149.447h450.858v-66.84c0-3.745-3.048-6.791-6.793-6.791H37.364
                    c-3.745,0-6.793,3.046-6.793,6.791V149.447z"></path>
                <path d="M76.774,104.099c-8.442,0-15.285-6.845-15.285-15.285V34.294c0-8.441,6.843-15.285,15.285-15.285
                    S92.06,25.854,92.06,34.294v54.519C92.06,97.254,85.216,104.099,76.774,104.099z"></path>
                <path d="M166.387,104.099c-8.442,0-15.285-6.845-15.285-15.285V34.294c0-8.441,6.843-15.285,15.285-15.285
                    s15.285,6.845,15.285,15.285v54.519C181.672,97.254,174.829,104.099,166.387,104.099z"></path>
                <path d="M345.613,104.099c-8.442,0-15.285-6.845-15.285-15.285V34.294c0-8.441,6.843-15.285,15.285-15.285
                    c8.442,0,15.285,6.845,15.285,15.285v54.519C360.899,97.254,354.055,104.099,345.613,104.099z"></path>
                <path d="M255.999,104.099c-8.442,0-15.285-6.845-15.285-15.285V34.294c0-8.441,6.843-15.285,15.285-15.285
                    c8.442,0,15.285,6.845,15.285,15.285v54.519C271.285,97.254,264.441,104.099,255.999,104.099z"></path>
                <path d="M435.226,104.099c-8.442,0-15.285-6.845-15.285-15.285V34.294c0-8.441,6.843-15.285,15.285-15.285
                    s15.285,6.845,15.285,15.285v54.519C450.511,97.254,443.668,104.099,435.226,104.099z"></path>
                <path d="M254.162,359.974c-4.054,0-7.942-1.611-10.808-4.477l-47.382-47.382
                    c-5.969-5.969-5.969-15.648,0-21.618c5.969-5.967,15.648-5.966,21.617,0l36.572,36.574l69.637-69.637
                    c5.969-5.967,15.648-5.967,21.618,0c5.969,5.969,5.969,15.648,0,21.618l-80.446,80.446
                    C262.104,358.363,258.217,359.974,254.162,359.974z"></path>
                <path d="M360.672,416.568H151.328c-8.442,0-15.285-6.845-15.285-15.285V237.839
                    c0-8.441,6.843-15.285,15.285-15.285h94.991c8.442,0,15.285,6.845,15.285,15.285c0,8.441-6.843,15.285-15.285,15.285h-79.706
                    v132.875h178.774V320.57c0-8.441,6.843-15.285,15.285-15.285c8.442,0,15.285,6.845,15.285,15.285v80.715
                    C375.958,409.725,369.115,416.568,360.672,416.568z"></path>
                </g>
            </symbol>

             <symbol version="1.1" xml:space="preserve" xmlns="http://www.w3.org/2000/svg" xmlnsSerif="http://www.serif.com/" xmlns:xlink="http://www.w3.org/1999/xlink" viewBox="0 0 256 256" id="icones-4" fill="#292d3e">
                <path d="M191.33,62.954c1.527,0.181 1.928,0.415 2.664,0.866c3.049,1.868 3.769,6.697 1.107,9.358c-1.111,1.112 -2.657,1.695 -4.242,1.758l-96.868,0c-1.537,-0.061 -1.955,-0.262 -2.724,-0.654c-3.327,-1.695 -4.297,-6.811 -1.519,-9.589c1.111,-1.111 2.657,-1.695 4.243,-1.757l96.868,0c0.157,0.006 0.314,0.012 0.471,0.018Z"></path>
                <path d="M136.145,94.956c5.011,0.395 7.919,8.167 2.686,11.188c-0.635,0.367 -1.337,0.616 -2.062,0.73c-0.31,0.049 -0.624,0.066 -0.938,0.074l-41.84,0c-5.159,-0.135 -8.337,-8.115 -3,-11.196c0.635,-0.367 1.337,-0.615 2.061,-0.73c0.31,-0.049 0.624,-0.066 0.939,-0.074l41.84,0c0.105,0.003 0.209,0.006 0.314,0.008Z"></path>
                <path d="M191.128,94.954c4.424,0.299 7.487,6.236 4.249,9.942c-1.123,1.285 -2.793,2.013 -4.518,2.052l-30.277,0c-4.361,-0.098 -7.649,-5.68 -4.854,-9.527c1.11,-1.526 2.945,-2.43 4.854,-2.473l30.277,0c0.09,0.002 0.179,0.004 0.269,0.006Z"></path>
                <path d="M191.128,155.586c4.461,0.3 7.443,6.286 4.249,9.941c-1.123,1.286 -2.793,2.014 -4.518,2.053l-30.277,0c-4.548,-0.102 -7.823,-6.165 -4.518,-9.948c1.123,-1.285 2.793,-2.014 4.518,-2.052l30.277,0c0.09,0.002 0.179,0.004 0.269,0.006Z"></path>
                <path d="M136.281,155.588c4.251,0.335 7.268,5.763 4.54,9.518c-1.108,1.525 -2.951,2.424 -4.854,2.474l-41.976,0c-5.115,-0.134 -8.274,-8.152 -3,-11.196c0.635,-0.367 1.337,-0.616 2.061,-0.73c0.31,-0.05 0.624,-0.066 0.939,-0.074l41.976,0c0.105,0.002 0.209,0.005 0.314,0.008Z"></path>
                <path d="M191.26,124.725c4.371,0.44 7.291,6.181 4.181,9.86c-1.12,1.325 -2.225,2.048 -4.582,2.126l-68.019,0c-4.558,-0.152 -7.78,-6.091 -4.582,-9.873c1.12,-1.325 2.224,-2.048 4.582,-2.127l68.019,0c0.133,0.005 0.267,0.009 0.401,0.014Z"></path>
                <path d="M100.706,199.292c-24.359,0.84 -48.585,2.928 -72.448,6.347c-1.556,0.222 -3.733,0.54 -3.733,0.54c-11.662,1.38 -23.352,-8.08 -23.607,-20.551c-0.289,-42.436 -0.002,-84.769 0.003,-127.122l0.002,-14.221c0,0 0.128,-4.078 1.299,-7.251c3.154,-8.542 12.267,-14.419 21.588,-13.636c66.139,6.435 133.708,6.73 200.217,0.695c2.744,-0.249 5.486,-0.518 8.227,-0.776c0,0 0.702,-0.094 2.21,-0.076c10.783,0.265 20.396,9.542 20.618,20.719c0.309,47.21 0.003,94.335 -0.011,141.532c0,0 -0.134,4.181 -1.363,7.421c-3.307,8.722 -12.862,14.558 -22.376,13.365c-26.207,-3.649 -52.741,-5.999 -79.307,-6.943l0.001,0.044l0,5.878c15.996,2.139 31.752,6.107 46.937,11.438c0,0 4.243,1.819 4.555,5.332c0.319,3.603 -3.267,7.006 -6.871,6.463c-1.716,-0.259 -1.996,-0.591 -2.79,-0.868c-42.618,-14.74 -89.902,-16.767 -133.209,0.508c0,0 -3.387,0.814 -5.473,-0.53c-3.702,-2.386 -3.549,-8.8 1.549,-10.825c14.217,-5.646 28.976,-9.52 43.979,-11.576l0,-5.82l0.003,-0.087Zm133.305,-164.054c-6.231,0.092 -13.359,1.223 -20.194,1.774c-60.569,4.884 -121.882,4.784 -182.565,-0.838c-4.004,-0.371 -8.257,-1.521 -11.787,-0.521c-3.694,1.046 -6.463,4.625 -6.541,8.533c-0.312,47.102 -0.328,94.181 -0.007,141.278c0.103,5.025 4.817,9.434 10.116,8.807c17.904,-2.367 35.924,-4.614 54.005,-5.87c50.801,-3.53 101.921,-1.466 152.431,5.499c6.12,0.844 13.448,-0.767 13.602,-8.306c0.316,-47.083 0.321,-94.277 0.012,-141.476c-0.092,-4.603 -3.973,-8.697 -8.718,-8.876c-0.118,-0.003 -0.236,-0.004 -0.354,-0.004Z"></path>
                <path d="M80.029,64.248c0,-0.778 -0.309,-1.523 -0.858,-2.073c-0.55,-0.55 -1.296,-0.859 -2.073,-0.859c-2.612,0 -6.414,0 -9.025,0c-0.778,0 -1.523,0.309 -2.073,0.859c-0.55,0.55 -0.859,1.295 -0.859,2.073c0,2.698 0,6.678 0,9.376c0,0.777 0.309,1.523 0.859,2.073c0.55,0.549 1.295,0.858 2.073,0.858c2.611,0 6.413,0 9.025,0c0.777,0 1.523,-0.309 2.073,-0.858c0.549,-0.55 0.858,-1.296 0.858,-2.073c0,-2.698 0,-6.678 0,-9.376Z"></path>
                <path d="M80.029,96.26c0,-0.777 -0.309,-1.523 -0.858,-2.073c-0.55,-0.55 -1.296,-0.858 -2.073,-0.858c-2.612,0 -6.414,0 -9.025,0c-0.778,0 -1.523,0.308 -2.073,0.858c-0.55,0.55 -0.859,1.296 -0.859,2.073c0,2.698 0,6.678 0,9.376c0,0.778 0.309,1.523 0.859,2.073c0.55,0.55 1.295,0.859 2.073,0.859c2.611,0 6.413,0 9.025,0c0.777,0 1.523,-0.309 2.073,-0.859c0.549,-0.55 0.858,-1.295 0.858,-2.073c0,-2.698 0,-6.678 0,-9.376Z"></path>
                <path d="M80.029,156.892c0,-0.778 -0.309,-1.523 -0.858,-2.073c-0.55,-0.55 -1.296,-0.859 -2.073,-0.859c-2.612,0 -6.414,0 -9.025,0c-0.778,0 -1.523,0.309 -2.073,0.859c-0.55,0.55 -0.859,1.295 -0.859,2.073c0,2.698 0,6.678 0,9.376c0,0.777 0.309,1.523 0.859,2.073c0.55,0.549 1.295,0.858 2.073,0.858c2.611,0 6.413,0 9.025,0c0.777,0 1.523,-0.309 2.073,-0.858c0.549,-0.55 0.858,-1.296 0.858,-2.073c0,-2.698 0,-6.678 0,-9.376Z"></path>
                <path d="M108.879,126.023c0,-0.777 -0.309,-1.523 -0.859,-2.072c-0.55,-0.55 -1.295,-0.859 -2.073,-0.859c-2.612,0 -6.413,0 -9.025,0c-0.777,0 -1.523,0.309 -2.073,0.859c-0.55,0.549 -0.858,1.295 -0.858,2.072c0,2.698 0,6.679 0,9.376c0,0.778 0.308,1.524 0.858,2.073c0.55,0.55 1.296,0.859 2.073,0.859c2.612,0 6.413,0 9.025,0c0.778,0 1.523,-0.309 2.073,-0.859c0.55,-0.549 0.859,-1.295 0.859,-2.073c0,-2.697 0,-6.678 0,-9.376Z"></path>
            </symbol>

            <symbol xmlns="http://www.w3.org/2000/svg" viewBox="0 0 73 36" id="icones-5">
                <path d="M6.476 17.85c1.434 0 2.715-.47 3.726-1.287l.364.87h3.289V5.126h-3.17l-.436.952C9.23 5.238 7.93 4.754 6.476 4.754 2.699 4.754 0 7.467 0 11.28c0 3.825 2.7 6.571 6.476 6.571Zm.568-3.754c-1.593 0-2.764-1.2-2.764-2.807 0-1.598 1.161-2.797 2.764-2.797 1.594 0 2.765 1.2 2.765 2.797 0 1.607-1.171 2.807-2.765 2.807Zm15.422 3.754c3.648 0 6.078-2.243 6.078-5.687V5.138H24.29v6.84c0 1.286-.687 2.064-1.824 2.064-1.136 0-1.837-.765-1.837-2.064v-6.84h-4.254v7.025c0 3.444 2.443 5.687 6.091 5.687Zm14.361.013c1.439 0 2.72-.488 3.725-1.33l.401.914h3.148V.694h-4.205v4.895a5.78 5.78 0 0 0-3.069-.854c-3.79 0-6.489 2.732-6.489 6.557 0 3.826 2.7 6.571 6.49 6.571Zm.57-3.754c-1.594 0-2.765-1.21-2.765-2.816 0-1.608 1.17-2.817 2.764-2.817 1.594 0 2.765 1.21 2.765 2.817 0 1.607-1.171 2.816-2.765 2.816ZM50.99 3.598V0H46.8v3.598h4.19Zm.032 13.848V5.138H46.77v12.308h4.254Zm8.88.404c4.014 0 6.925-2.755 6.925-6.558 0-3.815-2.911-6.557-6.924-6.557-4.027 0-6.925 2.742-6.925 6.557 0 3.803 2.898 6.558 6.925 6.558Zm9.76-9.573c.463 0 .853-.156 1.172-.466.318-.31.478-.7.478-1.173 0-.463-.16-.852-.478-1.166A1.604 1.604 0 0 0 69.663 5c-.463 0-.856.157-1.179.472A1.563 1.563 0 0 0 68 6.638c0 .472.161.863.484 1.173.323.31.716.466 1.179.466Zm-9.76 5.765c-1.55 0-2.663-1.122-2.663-2.75 0-1.627 1.113-2.748 2.664-2.748 1.55 0 2.663 1.131 2.663 2.749 0 1.627-1.112 2.749-2.663 2.749Zm-39.676 21.86v-4.846a5.789 5.789 0 0 0 3.01.817c3.777 0 6.476-2.735 6.476-6.57 0-3.835-2.7-6.558-6.475-6.558-1.468 0-2.775.506-3.79 1.381l-.533-.977h-2.893v16.753h4.205Zm2.442-7.783c-1.594 0-2.765-1.2-2.765-2.816 0-1.617 1.171-2.817 2.765-2.817 1.593 0 2.764 1.2 2.764 2.817 0 1.617-1.18 2.816-2.764 2.816Zm13.25 3.338v-6.573c0-1.58.802-2.49 2.09-2.49 1.11 0 1.61.724 1.61 2.144v6.919h4.253v-7.412c0-3.19-1.822-5.26-4.657-5.26a5.28 5.28 0 0 0-3.297 1.174v-5.255h-4.253v16.753h4.253Zm14.718-13.849V14.01h-4.189v3.598h4.189Zm.033 13.849V19.148h-4.254v12.309h4.254Zm6.929 0V14.704h-4.254v16.753H57.6Zm8.664.404c3.099 0 5.597-1.755 6.466-4.564h-4.233c-.409.72-1.24 1.154-2.233 1.154-1.343 0-2.243-.73-2.52-2.142h9.17c.055-.38.087-.752.087-1.122 0-3.611-2.756-6.442-6.737-6.442-3.876 0-6.708 2.775-6.708 6.548 0 3.76 2.855 6.568 6.708 6.568Zm2.547-7.9h-4.993c.344-1.222 1.206-1.894 2.446-1.894 1.284 0 2.173.664 2.547 1.894Z" fill="#ADADAD"></path>
            </symbol>
              
</svg>